<svg width="177" height="40" viewBox="0 0 177 40" fill="none" xmlns="http://www.w3.org/2000/svg">
<g id="Logo-02 1">
<g id="Group">
<path id="Vector" d="M38.148 19.0598V16.9576H48.8692V19.0598H38.148ZM46.4517 13.6788C45.4298 13.6788 44.6677 13.8948 44.1714 14.3299C43.6721 14.7649 43.4239 15.4715 43.4239 16.4525V28.035H40.6911V16.7065C40.6911 15.6846 40.8838 14.7853 41.2692 14.0145C41.6546 13.2437 42.2502 12.6423 43.056 12.2072C43.8619 11.7722 44.8896 11.5562 46.1363 11.5562C46.7378 11.5562 47.2721 11.6058 47.7334 11.7021C48.1947 11.8014 48.6502 11.927 49.0998 12.0817V14.2248C48.694 14.0291 48.2736 13.889 47.8385 13.8043C47.4035 13.7197 46.9422 13.6788 46.4517 13.6788Z" fill="#F5F5F5"/>
<path id="Vector_2" d="M50.5071 16.1401H53.24L53.9553 20.47V28.0379H51.2225V19.9445L50.5071 16.1401ZM59.9874 16.0554V18.4525C59.6779 18.3679 59.3422 18.3065 58.9772 18.2627C58.6123 18.2219 58.2706 18.1985 57.9466 18.1985C57.1758 18.1985 56.4896 18.3679 55.8852 18.7036C55.2838 19.0394 54.8108 19.5416 54.4663 20.2073C54.1217 20.873 53.9524 21.6905 53.9524 22.6569L53.3217 21.8803C53.3772 21.0394 53.5203 20.2511 53.7539 19.5153C53.9874 18.7795 54.3086 18.1372 54.7203 17.5912C55.1349 17.0452 55.6429 16.616 56.2444 16.3095C56.8458 16 57.5466 15.8481 58.3466 15.8481C58.6269 15.8481 58.913 15.8657 59.2079 15.9007C59.5028 15.9357 59.7626 15.9883 59.9845 16.0584L59.9874 16.0554Z" fill="#F5F5F5"/>
<path id="Vector_3" d="M68.2706 28.3328C66.8838 28.3328 65.6487 28.07 64.5714 27.5445C63.4911 27.0189 62.6444 26.2861 62.0283 25.3489C61.4122 24.4087 61.1028 23.3168 61.1028 22.07C61.1028 20.8233 61.3947 19.7547 61.9757 18.8233C62.5568 17.8919 63.3626 17.162 64.3933 16.6365C65.4239 16.1109 66.6035 15.8481 67.9349 15.8481C69.2663 15.8481 70.4195 16.146 71.3918 16.7416C72.3641 17.3372 73.1203 18.1752 73.6517 19.2525C74.183 20.3328 74.4517 21.6 74.4517 23.0569H63.2458V20.9752H73.0852L71.7188 21.7518C71.6779 20.9664 71.4911 20.2949 71.1611 19.7343C70.8312 19.1737 70.3903 18.7416 69.8356 18.4408C69.2809 18.1401 68.6268 17.9883 67.8706 17.9883C67.0706 17.9883 66.3757 18.1489 65.7801 18.473C65.1845 18.7941 64.7173 19.2467 64.3816 19.8277C64.0458 20.4087 63.8765 21.1007 63.8765 21.8978C63.8765 22.7795 64.075 23.5445 64.475 24.1897C64.875 24.835 65.4414 25.3284 66.1772 25.673C66.913 26.0175 67.786 26.1868 68.7933 26.1868C69.7042 26.1868 70.6356 26.0438 71.5903 25.7547C72.5422 25.4686 73.383 25.0657 74.113 24.546V26.5226C73.383 27.0832 72.4984 27.5241 71.4531 27.8481C70.4079 28.1693 69.348 28.3328 68.2677 28.3328H68.2706Z" fill="#F5F5F5"/>
<path id="Vector_4" d="M83.7217 28.3328C82.3349 28.3328 81.0998 28.07 80.0225 27.5445C78.9422 27.0189 78.0955 26.2861 77.4794 25.3489C76.8633 24.4087 76.5538 23.3168 76.5538 22.07C76.5538 20.8233 76.8458 19.7547 77.4268 18.8233C78.0079 17.8919 78.8137 17.162 79.8444 16.6365C80.875 16.1109 82.0546 15.8481 83.386 15.8481C84.7174 15.8481 85.8706 16.146 86.8429 16.7416C87.8152 17.3372 88.5714 18.1752 89.1028 19.2525C89.6341 20.3328 89.9028 21.6 89.9028 23.0569H78.6969V20.9752H88.5363L87.1699 21.7518C87.129 20.9664 86.9422 20.2949 86.6122 19.7343C86.2823 19.1737 85.8414 18.7416 85.2867 18.4408C84.732 18.1401 84.0779 17.9883 83.3217 17.9883C82.5217 17.9883 81.8268 18.1489 81.2312 18.473C80.6356 18.7941 80.1685 19.2467 79.8327 19.8277C79.4969 20.4087 79.3276 21.1007 79.3276 21.8978C79.3276 22.7795 79.5261 23.5445 79.9261 24.1897C80.3261 24.835 80.8925 25.3284 81.6283 25.673C82.3641 26.0175 83.2371 26.1868 84.2444 26.1868C85.1553 26.1868 86.0867 26.0438 87.0414 25.7547C87.9933 25.4686 88.8341 25.0657 89.5641 24.546V26.5226C88.8341 27.0832 87.9495 27.5241 86.9042 27.8481C85.859 28.1693 84.7991 28.3328 83.7188 28.3328H83.7217Z" fill="#F5F5F5"/>
<path id="Vector_5" d="M92.6765 11.8511H95.4093V28.0379H92.6765V11.8511Z" fill="#F5F5F5"/>
<path id="Vector_6" d="M110.776 22.0875C110.51 23.3343 110.069 24.4291 109.45 25.3664C108.834 26.3065 108.072 27.0335 107.17 27.5532C106.265 28.07 105.26 28.3299 104.154 28.3299C102.992 28.3299 101.961 28.0671 101.065 27.5416C100.168 27.016 99.4677 26.2832 98.9626 25.3459C98.4575 24.4058 98.2064 23.3197 98.2064 22.0875C98.2064 20.8554 98.4575 19.7518 98.9626 18.8175C99.4677 17.8861 100.168 17.1562 101.065 16.6306C101.961 16.1051 102.992 15.8423 104.154 15.8423C105.316 15.8423 106.268 16.1021 107.17 16.6189C108.075 17.1386 108.837 17.8627 109.462 18.7941C110.087 19.7255 110.525 20.8233 110.776 22.0846V22.0875ZM100.98 22.0875C100.98 22.8875 101.144 23.5912 101.474 24.2014C101.804 24.8116 102.253 25.2875 102.828 25.6321C103.403 25.9766 104.06 26.1459 104.805 26.1459C105.549 26.1459 106.262 25.9737 106.907 25.6321C107.552 25.2875 108.122 24.8116 108.621 24.2014C109.117 23.5912 109.514 22.8875 109.809 22.0875C109.514 21.2875 109.117 20.5839 108.621 19.9737C108.125 19.3635 107.552 18.8875 106.907 18.543C106.262 18.1985 105.561 18.0291 104.805 18.0291C104.049 18.0291 103.403 18.2014 102.828 18.543C102.253 18.8875 101.801 19.3635 101.474 19.9737C101.144 20.5839 100.98 21.2875 100.98 22.0875ZM109.935 28.0379L109.474 23.6233L110.02 22.0875L109.474 20.5751L109.935 16.1401H112.752L112.122 22.0905L112.752 28.0408H109.935V28.0379Z" fill="#F5F5F5"/>
<path id="Vector_7" d="M115.339 16.1401H118.072L118.787 20.4292V28.0379H116.055V20.0292L115.339 16.1401ZM123.517 15.8452C124.639 15.8452 125.59 16.07 126.376 16.5167C127.161 16.9664 127.76 17.6058 128.174 18.4408C128.589 19.2759 128.793 20.2803 128.793 21.4569V28.0379H126.06V21.9007C126.06 20.654 125.768 19.7109 125.187 19.0744C124.606 18.4379 123.754 18.1167 122.633 18.1167C121.862 18.1167 121.184 18.289 120.603 18.6306C120.022 18.9751 119.573 19.454 119.257 20.07C118.942 20.6861 118.784 21.4073 118.784 22.2365L117.818 21.7109C117.944 20.4788 118.268 19.4277 118.784 18.5576C119.304 17.6876 119.97 17.0189 120.782 16.5489C121.593 16.0788 122.504 15.8452 123.514 15.8452H123.517Z" fill="#F5F5F5"/>
<path id="Vector_8" d="M143.99 22.0876C143.725 23.3343 143.284 24.4292 142.665 25.3664C142.049 26.3066 141.287 27.0336 140.384 27.5533C139.479 28.0701 138.475 28.3299 137.368 28.3299C136.206 28.3299 135.176 28.0671 134.279 27.5416C133.383 27.016 132.682 26.2832 132.177 25.346C131.672 24.4058 131.421 23.3197 131.421 22.0876C131.421 20.8555 131.672 19.7518 132.177 18.8175C132.682 17.8861 133.383 17.1562 134.279 16.6306C135.176 16.1051 136.206 15.8423 137.368 15.8423C138.53 15.8423 139.482 16.1022 140.384 16.619C141.29 17.1387 142.052 17.8628 142.676 18.7942C143.301 19.7255 143.739 20.8233 143.99 22.0847V22.0876ZM134.195 22.0876C134.195 22.8876 134.358 23.5912 134.688 24.2014C135.018 24.8117 135.468 25.2876 136.043 25.6321C136.618 25.9766 137.275 26.146 138.02 26.146C138.764 26.146 139.476 25.9737 140.122 25.6321C140.767 25.2876 141.336 24.8117 141.836 24.2014C142.332 23.5912 142.729 22.8876 143.024 22.0876C142.729 21.2876 142.332 20.5839 141.836 19.9737C141.339 19.3635 140.767 18.8876 140.122 18.5431C139.476 18.1985 138.776 18.0292 138.02 18.0292C137.263 18.0292 136.618 18.2014 136.043 18.5431C135.468 18.8876 135.015 19.3635 134.688 19.9737C134.358 20.5839 134.195 21.2876 134.195 22.0876ZM143.193 28.0379L142.732 23.5182L143.342 22.1109L142.752 20.4934L143.634 11.854H146.452L145.38 21.9241L145.99 28.0409H143.193V28.0379Z" fill="#F5F5F5"/>
<path id="Vector_9" d="M155.722 28.3328C154.279 28.3328 153.012 28.07 151.926 27.5445C150.84 27.0189 149.993 26.2861 149.383 25.3489C148.773 24.4087 148.469 23.3226 148.469 22.0905C148.469 20.8584 148.773 19.7547 149.383 18.8204C149.993 17.889 150.84 17.1591 151.926 16.6335C153.012 16.108 154.276 15.8452 155.722 15.8452C157.167 15.8452 158.431 16.108 159.517 16.6335C160.603 17.1591 161.45 17.889 162.06 18.8204C162.671 19.7518 162.974 20.8408 162.974 22.0905C162.974 23.3401 162.671 24.4087 162.06 25.3489C161.45 26.289 160.603 27.0189 159.517 27.5445C158.431 28.07 157.167 28.3328 155.722 28.3328ZM155.722 26.1897C156.647 26.1897 157.441 26.0204 158.107 25.6846C158.773 25.3489 159.287 24.8759 159.652 24.2657C160.017 23.6554 160.198 22.9313 160.198 22.0905C160.198 21.2496 160.017 20.5255 159.652 19.9153C159.287 19.3051 158.773 18.8321 158.107 18.4963C157.441 18.1605 156.647 17.9912 155.722 17.9912C154.796 17.9912 154.02 18.1605 153.345 18.4963C152.674 18.8321 152.154 19.3051 151.789 19.9153C151.424 20.5255 151.243 21.2496 151.243 22.0905C151.243 22.9313 151.424 23.6554 151.789 24.2657C152.154 24.8759 152.671 25.3489 153.345 25.6846C154.017 26.0204 154.808 26.1897 155.722 26.1897Z" fill="#F5F5F5"/>
</g>
<g id="Group_2">
<g id="Group_3">
<path id="Vector_10" d="M31.962 17.6026C30.6394 10.6828 23.9358 6.12811 17.0131 7.44781C10.0934 8.77044 5.53869 15.477 6.8584 22.3967C8.00584 28.3909 13.2409 32.7442 19.3226 32.7763C19.1679 32.4989 19.019 32.2157 18.8613 31.9383C13.3693 31.6931 8.70657 27.696 7.66424 22.242C6.42628 15.7661 10.6891 9.49161 17.165 8.25365C23.6438 7.0157 29.9153 11.2785 31.1533 17.7544C31.7518 20.8902 31.0949 24.0726 29.2993 26.715C29.2993 26.715 29.2993 26.7208 29.2964 26.7237C29.0161 27.1646 28.6131 27.4332 28.1635 27.4828C27.7635 27.5266 27.3635 27.3865 27.0745 27.0974L24.6307 24.6391L24.7504 24.5193C25.6526 23.6172 26.1518 22.4142 26.1518 21.1354C26.1518 19.8566 25.6555 18.6566 24.7504 17.7515L23.7839 16.785L21.6613 14.6595C20.7591 13.7544 19.5562 13.258 18.2774 13.258C16.9985 13.258 15.7985 13.7544 14.8934 14.6595L14.0759 15.477C13.1737 16.3792 12.6745 17.5821 12.6745 18.861C12.6745 20.1398 13.1708 21.3398 14.0759 22.2449L16.1985 24.3675H16.2015L17.1679 25.3369C18.0701 26.2391 19.273 26.7383 20.5518 26.7383C21.8307 26.7383 23.0307 26.242 23.9358 25.3369L24.0526 25.2201L26.4964 27.6785C26.908 28.0902 27.454 28.315 28.0234 28.315C28.1022 28.315 28.181 28.312 28.2599 28.3033C28.9577 28.2274 29.5679 27.8274 29.9854 27.1821V27.1792C29.9854 27.1792 29.9883 27.1763 29.9883 27.1734C29.9883 27.1734 29.9883 27.1734 29.9883 27.1704C31.9007 24.35 32.6015 20.9544 31.962 17.6055V17.6026ZM14.654 21.6639C13.9066 20.9164 13.492 19.9208 13.492 18.861C13.492 17.8011 13.9037 16.8084 14.654 16.058L15.4715 15.2405C16.2219 14.4931 17.2146 14.0785 18.2745 14.0785C19.3343 14.0785 20.327 14.4901 21.0774 15.2405L22.911 17.0741L19.6993 20.2858L16.4905 23.4974L14.6569 21.6639H14.654ZM23.3518 24.7558C22.6044 25.5033 21.6088 25.9179 20.5489 25.9179C19.4891 25.9179 18.4964 25.5062 17.746 24.7558L17.0686 24.0785L19.9883 21.1588L20.5022 21.6726C20.3007 22.096 20.3679 22.6215 20.7212 22.9719L21.6526 23.9033C21.8686 24.1193 22.1547 24.2361 22.4613 24.2361C22.6336 24.2361 22.8 24.1953 22.9518 24.1193L23.4657 24.6332L23.3489 24.7529L23.3518 24.7558ZM21.3051 21.9354L21.3518 21.8916C21.4131 21.8303 21.492 21.7982 21.5796 21.7982C21.6672 21.7982 21.746 21.8332 21.8073 21.8916L22.7387 22.8259C22.8 22.8872 22.8321 22.9661 22.8321 23.0537C22.8321 23.1383 22.8 23.2201 22.7358 23.2814L22.692 23.3252C22.5723 23.4478 22.3562 23.4478 22.2365 23.3252L21.3051 22.3938C21.1796 22.2683 21.1796 22.0639 21.3051 21.9383V21.9354ZM24.0526 24.058L23.5387 23.5442C23.6117 23.3923 23.6526 23.2259 23.6526 23.0537C23.6526 22.7471 23.5328 22.458 23.3168 22.2449L22.3854 21.3135C22.0467 20.9748 21.5124 20.9047 21.0891 21.0974L20.5723 20.5807L23.492 17.661L24.1693 18.3383C24.9168 19.0858 25.3314 20.0814 25.3314 21.1412C25.3314 22.2011 24.9197 23.1967 24.1693 23.9442L24.0496 24.0639L24.0526 24.058Z" fill="#F5F5F5"/>
<path id="Vector_11" d="M10.3533 29.0538C8.58686 27.2874 7.32263 24.9983 6.82628 22.4056C5.50073 15.4655 10.0701 8.74139 17.0073 7.41584C20.365 6.77351 23.7752 7.483 26.6073 9.40708C29.4423 11.3312 31.3547 14.2421 31.9971 17.5969C32.6394 20.9516 31.9358 24.3589 30.0175 27.1881L30.0117 27.1998L30.0058 27.2085C29.5825 27.8626 28.9606 28.2655 28.2569 28.3414C28.1781 28.3501 28.0963 28.3531 28.0175 28.3531C27.4336 28.3531 26.8847 28.1224 26.4672 27.7049L24.0496 25.2728L23.9591 25.3633C23.0482 26.2742 21.8365 26.7764 20.5489 26.7764C19.2613 26.7764 18.0496 26.2742 17.1387 25.3633L14.0467 22.2713C13.1358 21.3604 12.6365 20.1487 12.6365 18.8611C12.6365 17.5735 13.1387 16.3618 14.0496 15.4509L14.8672 14.6334C15.7781 13.7224 16.9898 13.2202 18.2774 13.2202C19.565 13.2202 20.7737 13.7224 21.6847 14.6304L23.7956 16.7443L23.8102 16.756L24.7766 17.7224C25.6876 18.6334 26.1869 19.845 26.1869 21.1326C26.1869 22.4202 25.6847 23.6319 24.7737 24.5399L24.6803 24.6334L27.0978 27.0684C27.381 27.3516 27.7664 27.4888 28.1577 27.445C28.5927 27.3983 28.9839 27.1355 29.2584 26.7064V26.7005H29.2642V26.6947C31.0569 24.0582 31.7139 20.8874 31.1153 17.7604C30.5197 14.6392 28.7387 11.9326 26.1022 10.1429C23.4657 8.35307 20.2949 7.69322 17.1708 8.29176C10.7153 9.52679 6.46715 15.7808 7.69927 22.2363C8.74161 27.6815 13.3314 31.6582 18.8642 31.9034H18.8847L18.8934 31.921C18.9927 32.0961 19.092 32.2772 19.1883 32.4523C19.2438 32.5545 19.2993 32.6567 19.3547 32.7589L19.3839 32.8144H19.3226C15.8599 32.7939 12.6686 31.375 10.3474 29.0538H10.3533ZM28.4467 11.0158C27.8774 10.4465 27.2496 9.92679 26.5693 9.46548C23.7518 7.55015 20.362 6.84942 17.0219 7.48592C10.1226 8.8027 5.57956 15.4918 6.89635 22.391C8.03212 28.3356 13.2292 32.6772 19.2642 32.7414C19.2175 32.6567 19.1737 32.572 19.127 32.4903C19.0365 32.3209 18.9401 32.1458 18.8438 31.9764C16.181 31.8538 13.6 30.8231 11.5737 29.0742C9.53577 27.3137 8.13723 24.8932 7.63212 22.2509C6.39124 15.7574 10.6657 9.46256 17.162 8.22168C20.3036 7.62022 23.4949 8.283 26.1489 10.0845C28.8 11.8859 30.5927 14.61 31.1942 17.7487C31.7956 20.8961 31.1358 24.0874 29.3343 26.7355C29.3372 26.7297 29.3343 26.7355 29.3343 26.7414V26.7472H29.3285C29.0423 27.1969 28.6307 27.4684 28.1723 27.521C27.7577 27.5677 27.3518 27.4217 27.054 27.1239L24.5839 24.6392L24.7299 24.4932C25.6263 23.5969 26.1197 22.4056 26.1197 21.1356C26.1197 19.8684 25.6263 18.6742 24.7299 17.7808L21.638 14.6888C20.7416 13.7925 19.5504 13.2991 18.2832 13.2991C17.0161 13.2991 15.8219 13.7925 14.9255 14.6888L14.108 15.5064C13.2117 16.4027 12.7182 17.5969 12.7182 18.864C12.7182 20.1312 13.2117 21.3253 14.108 22.2217L17.2 25.3137C18.0963 26.21 19.2905 26.7034 20.5577 26.7034C21.8248 26.7034 23.019 26.21 23.9153 25.3137L24.0584 25.1706L26.5285 27.6553C26.9314 28.0582 27.4657 28.2801 28.0292 28.2801C28.1051 28.2801 28.1839 28.2772 28.2599 28.2684C28.9431 28.1954 29.5445 27.8042 29.9562 27.1677V27.1618H29.962V27.156L29.9737 27.1472C31.8774 24.3356 32.5752 20.9487 31.9387 17.6144C31.454 15.083 30.2423 12.8056 28.4584 11.0217L28.4467 11.0158ZM14.6307 21.6903C13.8745 20.9341 13.4599 19.9297 13.4599 18.8611C13.4599 17.7925 13.8745 16.7881 14.6307 16.0319L15.4482 15.2144C16.2044 14.4582 17.2088 14.0436 18.2774 14.0436C19.346 14.0436 20.3504 14.4582 21.1066 15.2144L22.9664 17.0742L19.7343 20.3064L19.7285 20.321H19.7197L16.4934 23.5472L14.6336 21.6903H14.6307ZM22.8613 17.0742L21.054 15.2669C20.3124 14.5253 19.3255 14.1166 18.2774 14.1166C17.2292 14.1166 16.2423 14.5253 15.5007 15.2669L14.6832 16.0845C13.9416 16.8261 13.5328 17.8129 13.5328 18.8611C13.5328 19.9093 13.9416 20.8961 14.6832 21.6377L16.4905 23.445L22.8613 17.0742ZM17.7226 24.7823L17.019 24.0786L19.9912 21.1064L20.5489 21.664L20.5372 21.6874C20.3358 22.1107 20.4204 22.6188 20.7474 22.9458L21.6788 23.8772C21.8891 24.0845 22.1664 24.2012 22.4613 24.2012C22.6248 24.2012 22.7825 24.1633 22.9372 24.0903L22.9606 24.0786L23.5182 24.6363L23.3752 24.7823C22.619 25.5385 21.6146 25.9531 20.546 25.9531C19.4774 25.9531 18.473 25.5385 17.7168 24.7823H17.7226ZM17.1212 24.0786L17.7723 24.7297C18.5139 25.4713 19.5007 25.8801 20.5489 25.8801C21.5971 25.8801 22.5839 25.4713 23.3255 24.7297L23.4161 24.6363L22.946 24.1662C22.7883 24.2392 22.6277 24.2742 22.4613 24.2742C22.146 24.2742 21.8482 24.1516 21.6263 23.9297L20.6949 22.9983C20.3504 22.6538 20.2569 22.1253 20.4584 21.6786L19.9883 21.2085L17.1182 24.0786H17.1212ZM21.2788 22.4173C21.2117 22.3501 21.1737 22.2596 21.1737 22.1662C21.1737 22.0699 21.2117 21.9793 21.2788 21.9122L21.3255 21.8684C21.3927 21.8012 21.4832 21.7633 21.5796 21.7633C21.6759 21.7633 21.7635 21.8012 21.8336 21.8684L22.765 22.8027C22.8321 22.8699 22.8701 22.9604 22.8701 23.0567C22.8701 23.1531 22.8321 23.2436 22.762 23.3107L22.7182 23.3545C22.654 23.4188 22.5606 23.4567 22.4642 23.4567C22.3679 23.4567 22.2745 23.4188 22.2102 23.3545L21.2788 22.4231V22.4173ZM21.3314 21.9618C21.2788 22.0144 21.2467 22.0874 21.2467 22.1633C21.2467 22.2392 21.2759 22.3122 21.3285 22.3647L22.2599 23.2961C22.3124 23.3487 22.3854 23.3779 22.4613 23.3779C22.5372 23.3779 22.6131 23.3487 22.6628 23.2961L22.7066 23.2523C22.762 23.1969 22.7912 23.1268 22.7912 23.048C22.7912 22.9691 22.762 22.902 22.7095 22.8465L21.7781 21.9122C21.7226 21.8567 21.6526 21.8275 21.5766 21.8275C21.5007 21.8275 21.4277 21.8567 21.3752 21.9122L21.3285 21.9589L21.3314 21.9618ZM24.0526 24.1078L23.4949 23.5501L23.5066 23.5268C23.5796 23.372 23.6175 23.2144 23.6175 23.0509C23.6175 22.7531 23.5036 22.4757 23.2964 22.2684L22.365 21.3341C22.0496 21.0188 21.5358 20.9341 21.1095 21.1239L21.0861 21.1356L20.5255 20.575L23.4978 17.6027L24.2015 18.3064C24.9577 19.0626 25.3723 20.0669 25.3723 21.1356C25.3723 22.2042 24.9547 23.2085 24.2015 23.9647L24.0584 24.1078H24.0526ZM23.5825 23.5356L24.0526 24.0056L24.146 23.9122C24.8876 23.1706 25.2964 22.1837 25.2964 21.1356C25.2964 20.0874 24.8876 19.1005 24.146 18.3589L23.4949 17.7078L20.6248 20.575L21.1007 21.048C21.5474 20.8582 22.0847 20.9516 22.4146 21.2815L23.346 22.2158C23.5679 22.4377 23.6905 22.7355 23.6905 23.0509C23.6905 23.2144 23.6555 23.3779 23.5825 23.5356Z" fill="#F5F5F5"/>
</g>
<g id="Group_4">
<path id="Vector_12" d="M32.1635 17.5648C31.5153 14.1633 29.5737 11.2173 26.7037 9.26697C23.8336 7.3166 20.3766 6.60128 16.9781 7.24945C9.94745 8.59252 5.31971 15.4042 6.66278 22.4378C7.83066 28.5487 13.1883 32.9867 19.4073 32.9867C19.419 32.9867 19.4307 32.9838 19.4423 32.9808C19.3664 32.8465 19.2905 32.7093 19.2175 32.5721C13.2818 32.4845 8.18687 28.2188 7.0657 22.3589C5.76643 15.5502 10.2482 8.95164 17.0569 7.64945C17.8482 7.49763 18.6453 7.42463 19.4336 7.42463C21.927 7.42463 24.365 8.16916 26.4759 9.60566C29.2555 11.4947 31.1358 14.3502 31.7635 17.6436C32.3912 20.9254 31.708 24.2597 29.8394 27.0305L29.8248 27.0392L29.7956 27.0918C29.4131 27.6757 28.8584 28.0319 28.2336 28.102C27.6409 28.1662 27.0628 27.9589 26.6394 27.5385L24.0526 24.9341L23.7898 25.1969C22.9256 26.0611 21.7752 26.54 20.5518 26.54C19.3285 26.54 18.1781 26.0641 17.3139 25.1969L14.2219 22.1049C13.3577 21.2407 12.8788 20.0903 12.8788 18.867C12.8788 17.6436 13.3547 16.4932 14.2219 15.629L15.0394 14.8115C15.9066 13.9473 17.0569 13.4684 18.2803 13.4684C19.5037 13.4684 20.654 13.9443 21.5183 14.8115L23.638 16.9312L23.6876 16.9954H23.7022L24.6102 17.9035C25.4745 18.7677 25.9533 19.9181 25.9533 21.1414C25.9533 22.3648 25.4774 23.5151 24.6102 24.3794L24.3474 24.6422L26.9372 27.2465C27.273 27.5823 27.7285 27.7429 28.1927 27.6903C28.6978 27.6348 29.1504 27.337 29.4628 26.8553L29.492 26.8115C31.3051 24.1283 31.9708 20.902 31.3606 17.7195C30.7533 14.5341 28.9343 11.7721 26.2453 9.94726C23.5562 8.11952 20.3183 7.44799 17.1329 8.05821C10.546 9.3166 6.21314 15.6991 7.47154 22.2859C8.54015 27.8743 13.3489 31.9648 18.9898 32.1575C18.911 32.0144 18.8292 31.8743 18.7474 31.737C13.4073 31.4392 8.89052 27.5268 7.87446 22.21C6.65986 15.8451 10.8467 9.67865 17.2117 8.46113C20.292 7.87427 23.419 8.52244 26.0175 10.2859C28.6161 12.0524 30.3708 14.7181 30.9606 17.7984C31.5474 20.8728 30.908 23.9881 29.1504 26.5896L29.1299 26.6042L29.1183 26.6392C28.873 27.0159 28.5285 27.2436 28.1489 27.2874C27.8073 27.3254 27.4715 27.2057 27.2263 26.9604L24.9256 24.6451C25.854 23.7049 26.362 22.4641 26.362 21.1414C26.362 19.8188 25.8423 18.5546 24.8993 17.6144L21.8073 14.5224C20.8642 13.5794 19.6117 13.0597 18.2803 13.0597C16.9489 13.0597 15.6964 13.5794 14.7504 14.5195L13.9329 15.337C12.9898 16.2801 12.4701 17.5327 12.4701 18.864C12.4701 20.1954 12.9898 21.4509 13.9329 22.3911L17.0248 25.483C17.9679 26.4261 19.2204 26.9458 20.5518 26.9458C21.8832 26.9458 23.1124 26.4378 24.0526 25.5122L26.3533 27.8246C26.8642 28.3356 27.565 28.5838 28.2803 28.5078C29.019 28.4261 29.6701 28.0144 30.1226 27.3458L30.1577 27.3137L30.1752 27.2699C32.111 24.4057 32.8175 20.9604 32.1693 17.5677L32.1635 17.5648Z" fill="#F5F5F5"/>
<path id="Vector_13" d="M10.2073 29.2028C8.41168 27.4072 7.12993 25.0831 6.62482 22.4436C5.27884 15.3926 9.91825 8.56044 16.9693 7.21445C20.3796 6.56336 23.8453 7.28161 26.7241 9.23781C29.6029 11.194 31.5474 14.1488 32.1985 17.559C32.8496 20.9604 32.1372 24.4174 30.1985 27.2874L30.181 27.3312L30.1402 27.3692C29.6905 28.0407 29.0248 28.4612 28.2774 28.5429C27.5504 28.6218 26.838 28.3677 26.3212 27.8509L24.0467 25.5648C23.1037 26.4816 21.8628 26.9838 20.546 26.9838C19.2292 26.9838 17.9416 26.4612 16.9927 25.5123L13.9007 22.4203C12.9518 21.4714 12.4292 20.2101 12.4292 18.867C12.4292 17.5239 12.9518 16.2626 13.9007 15.3137L14.7183 14.4962C15.6701 13.5473 16.9314 13.0247 18.2715 13.0247C19.6146 13.0247 20.8759 13.5473 21.8248 14.4962L24.9168 17.5882C25.8657 18.5371 26.3883 19.7984 26.3883 21.1415C26.3883 22.4845 25.8832 23.702 24.9664 24.6451L27.2409 26.9342C27.4803 27.1736 27.8044 27.2874 28.1343 27.2524C28.5022 27.2115 28.838 26.9867 29.0774 26.6217L29.0891 26.5867L29.1124 26.5692C30.8613 23.9794 31.5007 20.8699 30.9139 17.8101C30.327 14.7415 28.5781 12.0816 25.9854 10.321C23.3927 8.56044 20.2774 7.91518 17.2058 8.50204C10.8613 9.71372 6.68614 15.8626 7.89781 22.2072C8.90803 27.4977 13.3664 31.4042 18.7387 31.705H18.7591L18.7679 31.7225C18.8526 31.8626 18.9343 32.0057 19.0102 32.1429L19.0423 32.1984H18.9781C16.2365 32.102 13.5737 31.0655 11.4832 29.2758C9.38395 27.4801 7.94453 25.0013 7.42774 22.2947C6.16643 15.6904 10.5139 9.28744 17.1183 8.02613C20.3153 7.41591 23.5591 8.08744 26.2569 9.92102C28.9548 11.7546 30.7766 14.5225 31.3869 17.7166C31.9971 20.9079 31.3314 24.1458 29.5124 26.8349L29.4832 26.8787C29.1621 27.3721 28.7007 27.6728 28.1839 27.7312C27.708 27.7838 27.238 27.6174 26.8964 27.2758L24.2832 24.6451L24.5723 24.3561C25.4307 23.4977 25.9037 22.3561 25.9037 21.1444C25.9037 19.9327 25.4307 18.7911 24.5752 17.9327L23.6788 17.0334H23.6613L23.6 16.9546L21.4832 14.8378C20.6248 13.9794 19.4861 13.5064 18.2715 13.5064C17.0599 13.5064 15.9183 13.9794 15.0569 14.8378L14.2394 15.6553C13.381 16.5137 12.908 17.6553 12.908 18.867C12.908 20.0816 13.381 21.2203 14.2365 22.0787L17.3285 25.1736C18.1869 26.032 19.3285 26.505 20.5401 26.505C21.7547 26.505 22.8934 26.032 23.7518 25.1736L24.0409 24.8845L26.654 27.5152C27.0686 27.9298 27.638 28.1312 28.219 28.0699C28.8321 28.0028 29.3781 27.6495 29.7548 27.0772L29.7869 27.0188L29.8015 27.0072C31.6613 24.2451 32.3416 20.9225 31.7168 17.6524C31.0891 14.3677 29.2175 11.521 26.4438 9.63781C24.3504 8.21591 21.9212 7.46555 19.4219 7.46555C18.6336 7.46555 17.8336 7.54146 17.0511 7.69036C10.2628 8.98671 5.79271 15.5677 7.08906 22.3561C8.20146 28.1692 13.2964 32.4524 19.2058 32.5371H19.2263L19.235 32.5575C19.308 32.6947 19.3839 32.8291 19.4599 32.9634L19.4891 33.013L19.4336 33.0188C19.4336 33.0188 19.4248 33.0188 19.4219 33.0188C19.4131 33.0188 19.4044 33.0217 19.3985 33.0217C15.8482 33.0217 12.5752 31.5794 10.1985 29.2028H10.2073ZM28.5898 10.8728C28.0117 10.2947 27.3752 9.76628 26.6832 9.2962C23.819 7.35168 20.3766 6.63635 16.9839 7.28453C9.97373 8.62467 5.35767 15.4188 6.69782 22.429C7.86278 28.5166 13.1942 32.9342 19.381 32.9488C19.3168 32.8349 19.2555 32.7239 19.1942 32.6101C16.3212 32.5634 13.5212 31.5152 11.311 29.6612C9.0949 27.7984 7.57373 25.2086 7.03066 22.3707C5.72847 15.5415 10.2219 8.92248 17.0511 7.61737C17.8394 7.46555 18.6423 7.38963 19.4365 7.38963C21.9533 7.38963 24.3942 8.14584 26.4993 9.5765C29.2876 11.4714 31.1708 14.3327 31.8015 17.6378C32.4321 20.9283 31.746 24.2714 29.8715 27.0509V27.0568L29.854 27.0655L29.8307 27.1093C29.4394 27.705 28.8759 28.067 28.2394 28.1371C27.638 28.2013 27.0453 27.9911 26.6161 27.5619L24.0555 24.9838L23.819 25.2203C22.946 26.0933 21.7869 26.5721 20.5547 26.5721C19.3226 26.5721 18.1635 26.0904 17.2905 25.2203L14.1985 22.1283C13.3285 21.2553 12.8467 20.0962 12.8467 18.8641C12.8467 17.632 13.3285 16.4728 14.1985 15.5999L15.0161 14.7823C15.8891 13.9093 17.0482 13.4305 18.2803 13.4305C19.5124 13.4305 20.6715 13.9093 21.5416 14.7823L23.6613 16.905L23.7022 16.9575H23.7139L24.6307 17.8743C25.5007 18.7473 25.9825 19.9064 25.9825 21.1385C25.9825 22.3707 25.5007 23.5298 24.6307 24.4028L24.3912 24.6393L26.9548 27.2174C27.2818 27.5444 27.7285 27.702 28.181 27.6524C28.6745 27.5969 29.1183 27.3079 29.4248 26.832L29.454 26.7882C31.2642 24.1137 31.9241 20.8962 31.3197 17.7225C30.7124 14.5458 28.9022 11.7955 26.2219 9.97358C23.5387 8.15168 20.3124 7.48307 17.1358 8.09036C10.5693 9.34584 6.24818 15.7079 7.50365 22.2743C8.55475 27.7634 13.3489 31.8918 18.9226 32.1137C18.8584 31.9999 18.7912 31.8831 18.7212 31.7663C13.3256 31.4568 8.84964 27.5298 7.83358 22.2101C6.61314 15.8276 10.8146 9.64073 17.2 8.42029C20.2891 7.83051 23.4248 8.48161 26.0321 10.2509C28.6394 12.0203 30.4 14.6977 30.9898 17.7867C31.5796 20.867 30.9343 23.9999 29.1737 26.6072V26.613L29.1562 26.6247L29.1475 26.648C28.8905 27.0393 28.5372 27.2758 28.146 27.3196C27.7956 27.3575 27.4482 27.2349 27.1942 26.9809L24.8672 24.6393L24.8934 24.613C25.8131 23.6816 26.3212 22.4466 26.3212 21.1356C26.3212 19.8247 25.8073 18.5692 24.873 17.6349L21.781 14.5429C20.8467 13.6057 19.6029 13.0918 18.2803 13.0918C16.9577 13.0918 15.7139 13.6057 14.7766 14.5429L13.9591 15.3604C13.0248 16.2947 12.508 17.5385 12.508 18.8612C12.508 20.1838 13.0219 21.4276 13.9562 22.3619L17.0482 25.4539C17.9825 26.3882 19.2263 26.905 20.5489 26.905C21.8715 26.905 23.092 26.3999 24.0234 25.4801L24.0496 25.4539L26.3737 27.7926C26.8759 28.2947 27.5679 28.54 28.2715 28.4641C28.9985 28.3853 29.6438 27.9765 30.0876 27.3166L30.1226 27.2845L30.1372 27.2495C32.0701 24.3882 32.7766 20.9517 32.1285 17.5677C31.638 14.9955 30.4058 12.6831 28.5898 10.867V10.8728Z" fill="#F5F5F5"/>
</g>
<g id="Group_5">
<path id="Vector_14" d="M19.8686 20.4088L23.2 17.0774L21.2204 15.0979C20.4321 14.3096 19.3869 13.8774 18.2745 13.8774C17.1621 13.8774 16.1139 14.3096 15.3256 15.0979L14.508 15.9154C13.7197 16.7037 13.2876 17.749 13.2876 18.8614C13.2876 19.9738 13.7197 21.022 14.508 21.8103L16.4876 23.7869L19.7839 20.4906H19.8277L19.8686 20.4059V20.4088ZM16.4905 23.2088L14.8 21.5212C14.0905 20.8117 13.6993 19.8687 13.6993 18.8614C13.6993 17.8541 14.0905 16.9139 14.8 16.2044L15.6175 15.3869C16.327 14.6774 17.273 14.2862 18.2774 14.2862C19.2818 14.2862 20.2248 14.6774 20.9343 15.3869L22.6248 17.0774L16.4905 23.2088Z" fill="#F5F5F5"/>
<path id="Vector_15" d="M14.4847 21.8364C13.6905 21.0423 13.2526 19.9854 13.2526 18.8642C13.2526 17.743 13.6905 16.6861 14.4847 15.8919L15.3022 15.0744C16.0964 14.2802 17.1533 13.8423 18.2745 13.8423C19.3956 13.8423 20.4526 14.2802 21.2467 15.0744L23.2496 17.0773L19.8949 20.4321L19.8482 20.5313H19.7956L16.4847 23.8423L14.4818 21.8394L14.4847 21.8364ZM21.1971 15.124C20.4175 14.3445 19.3781 13.9153 18.2774 13.9153C17.1737 13.9153 16.1372 14.3445 15.3548 15.124L14.5372 15.9416C13.7577 16.7211 13.3285 17.7605 13.3285 18.8613C13.3285 19.9649 13.7577 21.0043 14.5372 21.7839L16.4905 23.7343L19.7694 20.4554H19.8073L19.8453 20.3824L23.1504 17.0773L21.1971 15.124ZM14.7737 21.5474C14.0555 20.8291 13.6613 19.8773 13.6613 18.8642C13.6613 17.851 14.0555 16.8963 14.7737 16.181L15.5913 15.3635C16.3095 14.6452 17.2613 14.251 18.2745 14.251C19.2876 14.251 20.2394 14.6452 20.9577 15.3635L22.6715 17.0773L16.4876 23.2613L14.7737 21.5474ZM20.908 15.4131C20.2044 14.7094 19.2701 14.324 18.2774 14.324C17.2847 14.324 16.3475 14.7124 15.6438 15.4131L14.8263 16.2306C14.1226 16.9343 13.7372 17.8686 13.7372 18.8613C13.7372 19.854 14.1168 20.7737 14.8088 21.4744L16.4905 23.1562L22.5723 17.0744L20.908 15.4102V15.4131Z" fill="#F5F5F5"/>
</g>
</g>
</g>
</svg>
