<svg width="33" height="32" viewBox="0 0 33 32" fill="none" xmlns="http://www.w3.org/2000/svg">
<g id="Twiter 1">
<path id="Vector" fill-rule="evenodd" clip-rule="evenodd" d="M30.98 6.85002C30.05 7.27002 29.03 7.52002 28.03 7.69002C28.5 7.61002 29.21 6.75002 29.48 6.40002C29.91 5.87002 30.26 5.27002 30.46 4.61002C30.49 4.56002 30.5 4.49002 30.46 4.46002C30.4 4.43002 30.35 4.45002 30.3 4.47002C29.18 5.07002 28.03 5.50002 26.8 5.81002C26.7 5.84002 26.62 5.81002 26.56 5.75002C26.46 5.64002 26.36 5.53002 26.25 5.44002C25.01 4.38002 23.42 3.90002 21.85 4.01002C21.85 4.01002 21.86 4.01002 21.87 4.01002H21.75C21.75 4.01002 21.78 4.01002 21.79 4.02002C20.92 4.09002 20.06 4.34002 19.27 4.79002C16.97 6.09002 15.86 8.64002 16.24 11.2C16.26 11.34 16.24 11.36 16.12 11.34C11.31 10.62 7.31999 8.90002 4.08999 5.21002C3.94999 5.05002 3.86999 5.05002 3.75999 5.22002C2.33999 7.34002 3.02999 10.75 4.79999 12.43C5.03999 12.65 5.27999 12.88 5.53999 13.08C5.43999 13.1 4.26999 12.97 3.21999 12.43C3.07999 12.34 3.00999 12.39 2.99999 12.55C2.98999 12.78 2.99999 12.99 3.03999 13.24C3.30999 15.39 4.79999 17.38 6.83999 18.16C7.07999 18.26 7.34999 18.35 7.60999 18.4C7.14999 18.5 6.66999 18.57 5.32999 18.47C5.15999 18.44 5.09999 18.52 5.15999 18.68C6.15999 21.41 8.32999 22.22 9.94999 22.69C10.17 22.73 10.38 22.73 10.6 22.78C10.59 22.8 10.57 22.8 10.56 22.82C10.02 23.64 8.15999 24.25 7.28999 24.55C5.70999 25.1 3.98999 25.35 2.32999 25.19C2.05999 25.15 2.00999 25.15 1.92999 25.19C1.85999 25.24 1.92999 25.3 2.00999 25.37C2.34999 25.59 2.68999 25.79 3.03999 25.98C4.09999 26.54 5.19999 26.99 6.35999 27.31C13.07 29.16 20.45 27.28 24.76 21.65C27.29 18.35 28.27 14.27 28.27 10.17C28.27 9.98002 28.49 9.88002 28.63 9.78002C29.54 9.09002 30.27 8.27002 30.95 7.35002C31.1 7.14002 31.09 6.96002 31.09 6.88002V6.85002C31.09 6.77002 31.09 6.80002 30.98 6.85002Z" fill="#F5F5F5"/>
</g>
</svg>
