<svg width="33" height="32" viewBox="0 0 33 32" fill="none" xmlns="http://www.w3.org/2000/svg">
<g id="Whatsapp 1">
<path id="Vector" fill-rule="evenodd" clip-rule="evenodd" d="M16.21 4.03009C10.26 4.44009 5.51 9.38009 5.32 15.3401C5.24 17.7501 5.89 20.0801 7.19 22.0801L4.25 28.0001C4.34 28.0001 11.52 26.0601 11.52 26.0601C13.21 26.9701 15.11 27.4401 17.04 27.4401C23.5 27.4401 28.76 22.1801 28.76 15.7201C28.76 9.26009 23.05 3.56009 16.21 4.03009ZM17.03 25.4001C15.32 25.4001 13.63 24.9401 12.16 24.0801C12 23.9901 11.79 23.8401 11.79 23.8401C11.79 23.8401 11.46 23.9501 11.37 23.9701L8.16 24.8501L9.53 21.8301C7.98 19.9201 7.22 17.5601 7.37 15.1001C7.66 10.3001 11.54 6.39009 16.34 6.06009C21.98 5.67009 26.7 10.1501 26.7 15.7101C26.7 21.2701 22.36 25.3901 17.02 25.3901L17.03 25.4001Z" fill="#F5F5F5"/>
<path id="Vector_2" fill-rule="evenodd" clip-rule="evenodd" d="M21.5399 17.4799C21.0499 17.1899 20.4099 16.8599 19.8299 17.0999C19.3899 17.2799 19.0999 17.9799 18.8199 18.3299C18.6699 18.5099 18.4999 18.5399 18.2699 18.4499C16.5999 17.7899 15.3299 16.6699 14.4099 15.1399C14.2499 14.8999 14.2799 14.7099 14.4699 14.4899C14.7499 14.1599 15.0999 13.7899 15.1699 13.3499C15.2499 12.9099 15.0399 12.3899 14.8599 11.9999C14.6299 11.4999 14.3699 10.7799 13.8699 10.4999C13.4099 10.2399 12.7999 10.3899 12.3899 10.7199C11.6799 11.2999 11.3399 12.1999 11.3499 13.0999C11.3499 13.3599 11.3799 13.6099 11.4399 13.8599C11.9399 15.9099 13.3499 17.6399 14.9999 18.8899C16.4199 19.9699 18.7699 21.4299 20.6399 21.0799C21.5499 20.9099 22.4399 20.3499 22.7999 19.4699C22.9099 19.2099 22.9599 18.9199 22.8999 18.6499C22.7799 18.0899 22.0099 17.7499 21.5499 17.4799H21.5399Z" fill="#F5F5F5"/>
</g>
</svg>
